<svg width="1430" height="1199" viewBox="0 0 1430 1199" fill="none" xmlns="http://www.w3.org/2000/svg">
<path fill-rule="evenodd" clip-rule="evenodd" d="M100.074 52.601C115.651 57.0945 133.462 62.2326 151 62.2475C168.538 62.2326 186.349 57.0945 201.926 52.601C214.044 49.1055 224.809 46 233.041 46C291.05 46 325.598 253.288 279.965 253.288C265.124 253.288 257.778 244.49 248.684 233.599C233.918 215.916 214.544 192.715 151 192.697C87.4555 192.715 68.0821 215.916 53.3162 233.599C44.2221 244.49 36.8758 253.288 22.0346 253.288C-23.5981 253.288 10.9503 46 68.9588 46C77.1908 46 87.9561 49.1055 100.074 52.601ZM58.05 103.482C58.05 98.1695 62.3568 93.8627 67.6695 93.8627C72.9821 93.8627 77.2889 98.1695 77.2889 103.482V110.755H84.5622C89.8749 110.755 94.1817 115.062 94.1817 120.375C94.1817 125.687 89.8749 129.994 84.5622 129.994H77.2889V137.268C77.2889 142.58 72.9821 146.887 67.6695 146.887C62.3568 146.887 58.05 142.58 58.05 137.268V129.994H50.7768C45.4641 129.994 41.1573 125.687 41.1573 120.375C41.1573 115.062 45.4641 110.755 50.7768 110.755H58.05V103.482ZM237.418 97.3233C237.418 104.677 231.457 110.638 224.103 110.638C216.749 110.638 210.788 104.677 210.788 97.3233C210.788 89.9698 216.749 84.0085 224.103 84.0085C231.457 84.0085 237.418 89.9698 237.418 97.3233ZM200.641 133.748C207.994 133.748 213.956 127.787 213.956 120.434C213.956 113.08 207.994 107.119 200.641 107.119C193.287 107.119 187.326 113.08 187.326 120.434C187.326 127.787 193.287 133.748 200.641 133.748ZM237.418 143.309C237.418 150.662 231.457 156.624 224.103 156.624C216.749 156.624 210.788 150.662 210.788 143.309C210.788 135.955 216.749 129.994 224.103 129.994C231.457 129.994 237.418 135.955 237.418 143.309ZM247.213 133.748C254.567 133.748 260.528 127.787 260.528 120.434C260.528 113.08 254.567 107.119 247.213 107.119C239.86 107.119 233.898 113.08 233.898 120.434C233.898 127.787 239.86 133.748 247.213 133.748Z" fill="black" fill-opacity="0.2"/>
<path fill-rule="evenodd" clip-rule="evenodd" d="M99.0737 651.601C114.651 656.094 132.462 661.233 150 661.247C167.538 661.233 185.349 656.094 200.926 651.601C213.044 648.105 223.809 645 232.041 645C290.05 645 324.598 852.288 278.965 852.288C264.124 852.288 256.778 843.49 247.684 832.599C232.918 814.916 213.544 791.715 150 791.697C86.4555 791.715 67.0821 814.916 52.3162 832.599C43.2221 843.49 35.8758 852.288 21.0346 852.288C-24.5981 852.288 9.95026 645 67.9588 645C76.1908 645 86.9561 648.105 99.0737 651.601ZM57.05 702.482C57.05 697.169 61.3568 692.863 66.6695 692.863C71.9821 692.863 76.2889 697.169 76.2889 702.482V709.755H83.5622C88.8749 709.755 93.1817 714.062 93.1817 719.375C93.1817 724.687 88.8749 728.994 83.5622 728.994H76.2889V736.268C76.2889 741.58 71.9821 745.887 66.6695 745.887C61.3568 745.887 57.05 741.58 57.05 736.268V728.994H49.7768C44.4641 728.994 40.1573 724.687 40.1573 719.375C40.1573 714.062 44.4641 709.755 49.7768 709.755H57.05V702.482ZM236.418 696.323C236.418 703.677 230.457 709.638 223.103 709.638C215.749 709.638 209.788 703.677 209.788 696.323C209.788 688.97 215.749 683.009 223.103 683.009C230.457 683.009 236.418 688.97 236.418 696.323ZM199.641 732.748C206.994 732.748 212.956 726.787 212.956 719.434C212.956 712.08 206.994 706.119 199.641 706.119C192.287 706.119 186.326 712.08 186.326 719.434C186.326 726.787 192.287 732.748 199.641 732.748ZM236.418 742.309C236.418 749.662 230.457 755.624 223.103 755.624C215.749 755.624 209.788 749.662 209.788 742.309C209.788 734.955 215.749 728.994 223.103 728.994C230.457 728.994 236.418 734.955 236.418 742.309ZM246.213 732.748C253.567 732.748 259.528 726.787 259.528 719.434C259.528 712.08 253.567 706.119 246.213 706.119C238.86 706.119 232.898 712.08 232.898 719.434C232.898 726.787 238.86 732.748 246.213 732.748Z" fill="black" fill-opacity="0.2"/>
<path fill-rule="evenodd" clip-rule="evenodd" d="M551.074 52.601C566.651 57.0945 584.462 62.2326 602 62.2475C619.538 62.2326 637.349 57.0945 652.926 52.601C665.044 49.1055 675.809 46 684.041 46C742.05 46 776.598 253.288 730.965 253.288C716.124 253.288 708.778 244.49 699.684 233.599C684.918 215.916 665.544 192.715 602 192.697C538.456 192.715 519.082 215.916 504.316 233.599C495.222 244.49 487.876 253.288 473.035 253.288C427.402 253.288 461.95 46 519.959 46C528.191 46 538.956 49.1055 551.074 52.601ZM509.05 103.482C509.05 98.1695 513.357 93.8627 518.669 93.8627C523.982 93.8627 528.289 98.1695 528.289 103.482V110.755H535.562C540.875 110.755 545.182 115.062 545.182 120.375C545.182 125.687 540.875 129.994 535.562 129.994H528.289V137.268C528.289 142.58 523.982 146.887 518.669 146.887C513.357 146.887 509.05 142.58 509.05 137.268V129.994H501.777C496.464 129.994 492.157 125.687 492.157 120.375C492.157 115.062 496.464 110.755 501.777 110.755H509.05V103.482ZM688.418 97.3233C688.418 104.677 682.457 110.638 675.103 110.638C667.749 110.638 661.788 104.677 661.788 97.3233C661.788 89.9698 667.749 84.0085 675.103 84.0085C682.457 84.0085 688.418 89.9698 688.418 97.3233ZM651.641 133.748C658.994 133.748 664.956 127.787 664.956 120.434C664.956 113.08 658.994 107.119 651.641 107.119C644.287 107.119 638.326 113.08 638.326 120.434C638.326 127.787 644.287 133.748 651.641 133.748ZM688.418 143.309C688.418 150.662 682.457 156.624 675.103 156.624C667.749 156.624 661.788 150.662 661.788 143.309C661.788 135.955 667.749 129.994 675.103 129.994C682.457 129.994 688.418 135.955 688.418 143.309ZM698.213 133.748C705.567 133.748 711.528 127.787 711.528 120.434C711.528 113.08 705.567 107.119 698.213 107.119C690.86 107.119 684.898 113.08 684.898 120.434C684.898 127.787 690.86 133.748 698.213 133.748Z" fill="black" fill-opacity="0.2"/>
<path fill-rule="evenodd" clip-rule="evenodd" d="M550.074 651.601C565.651 656.094 583.462 661.233 601 661.247C618.538 661.233 636.349 656.094 651.926 651.601C664.044 648.105 674.809 645 683.041 645C741.05 645 775.598 852.288 729.965 852.288C715.124 852.288 707.778 843.49 698.684 832.599C683.918 814.916 664.544 791.715 601 791.697C537.456 791.715 518.082 814.916 503.316 832.599C494.222 843.49 486.876 852.288 472.035 852.288C426.402 852.288 460.95 645 518.959 645C527.191 645 537.956 648.105 550.074 651.601ZM508.05 702.482C508.05 697.169 512.357 692.863 517.669 692.863C522.982 692.863 527.289 697.169 527.289 702.482V709.755H534.562C539.875 709.755 544.182 714.062 544.182 719.375C544.182 724.687 539.875 728.994 534.562 728.994H527.289V736.268C527.289 741.58 522.982 745.887 517.669 745.887C512.357 745.887 508.05 741.58 508.05 736.268V728.994H500.777C495.464 728.994 491.157 724.687 491.157 719.375C491.157 714.062 495.464 709.755 500.777 709.755H508.05V702.482ZM687.418 696.323C687.418 703.677 681.457 709.638 674.103 709.638C666.749 709.638 660.788 703.677 660.788 696.323C660.788 688.97 666.749 683.009 674.103 683.009C681.457 683.009 687.418 688.97 687.418 696.323ZM650.641 732.748C657.994 732.748 663.956 726.787 663.956 719.434C663.956 712.08 657.994 706.119 650.641 706.119C643.287 706.119 637.326 712.08 637.326 719.434C637.326 726.787 643.287 732.748 650.641 732.748ZM687.418 742.309C687.418 749.662 681.457 755.624 674.103 755.624C666.749 755.624 660.788 749.662 660.788 742.309C660.788 734.955 666.749 728.994 674.103 728.994C681.457 728.994 687.418 734.955 687.418 742.309ZM697.213 732.748C704.567 732.748 710.528 726.787 710.528 719.434C710.528 712.08 704.567 706.119 697.213 706.119C689.86 706.119 683.898 712.08 683.898 719.434C683.898 726.787 689.86 732.748 697.213 732.748Z" fill="black" fill-opacity="0.2"/>
<path fill-rule="evenodd" clip-rule="evenodd" d="M325.074 352.601C340.651 357.094 358.462 362.233 376 362.247C393.538 362.233 411.349 357.094 426.926 352.601C439.044 349.105 449.809 346 458.041 346C516.05 346 550.598 553.288 504.965 553.288C490.124 553.288 482.778 544.49 473.684 533.599C458.918 515.916 439.544 492.715 376 492.697C312.456 492.715 293.082 515.916 278.316 533.599C269.222 544.49 261.876 553.288 247.035 553.288C201.402 553.288 235.95 346 293.959 346C302.191 346 312.956 349.105 325.074 352.601ZM283.05 403.482C283.05 398.169 287.357 393.863 292.669 393.863C297.982 393.863 302.289 398.169 302.289 403.482V410.755H309.562C314.875 410.755 319.182 415.062 319.182 420.375C319.182 425.687 314.875 429.994 309.562 429.994H302.289V437.268C302.289 442.58 297.982 446.887 292.669 446.887C287.357 446.887 283.05 442.58 283.05 437.268V429.994H275.777C270.464 429.994 266.157 425.687 266.157 420.375C266.157 415.062 270.464 410.755 275.777 410.755H283.05V403.482ZM462.418 397.323C462.418 404.677 456.457 410.638 449.103 410.638C441.749 410.638 435.788 404.677 435.788 397.323C435.788 389.97 441.749 384.009 449.103 384.009C456.457 384.009 462.418 389.97 462.418 397.323ZM425.641 433.748C432.994 433.748 438.956 427.787 438.956 420.434C438.956 413.08 432.994 407.119 425.641 407.119C418.287 407.119 412.326 413.08 412.326 420.434C412.326 427.787 418.287 433.748 425.641 433.748ZM462.418 443.309C462.418 450.662 456.457 456.624 449.103 456.624C441.749 456.624 435.788 450.662 435.788 443.309C435.788 435.955 441.749 429.994 449.103 429.994C456.457 429.994 462.418 435.955 462.418 443.309ZM472.213 433.748C479.567 433.748 485.528 427.787 485.528 420.434C485.528 413.08 479.567 407.119 472.213 407.119C464.86 407.119 458.898 413.08 458.898 420.434C458.898 427.787 464.86 433.748 472.213 433.748Z" fill="black" fill-opacity="0.2"/>
<path fill-rule="evenodd" clip-rule="evenodd" d="M326.074 951.601C341.651 956.094 359.462 961.233 377 961.247C394.538 961.233 412.349 956.094 427.926 951.601C440.044 948.105 450.809 945 459.041 945C517.05 945 551.598 1152.29 505.965 1152.29C491.124 1152.29 483.778 1143.49 474.684 1132.6C459.918 1114.92 440.544 1091.72 377 1091.7C313.456 1091.72 294.082 1114.92 279.316 1132.6C270.222 1143.49 262.876 1152.29 248.035 1152.29C202.402 1152.29 236.95 945 294.959 945C303.191 945 313.956 948.105 326.074 951.601ZM284.05 1002.48C284.05 997.169 288.357 992.863 293.669 992.863C298.982 992.863 303.289 997.169 303.289 1002.48V1009.76H310.562C315.875 1009.76 320.182 1014.06 320.182 1019.37C320.182 1024.69 315.875 1028.99 310.562 1028.99H303.289V1036.27C303.289 1041.58 298.982 1045.89 293.669 1045.89C288.357 1045.89 284.05 1041.58 284.05 1036.27V1028.99H276.777C271.464 1028.99 267.157 1024.69 267.157 1019.37C267.157 1014.06 271.464 1009.76 276.777 1009.76H284.05V1002.48ZM463.418 996.323C463.418 1003.68 457.457 1009.64 450.103 1009.64C442.749 1009.64 436.788 1003.68 436.788 996.323C436.788 988.97 442.749 983.009 450.103 983.009C457.457 983.009 463.418 988.97 463.418 996.323ZM426.641 1032.75C433.994 1032.75 439.956 1026.79 439.956 1019.43C439.956 1012.08 433.994 1006.12 426.641 1006.12C419.287 1006.12 413.326 1012.08 413.326 1019.43C413.326 1026.79 419.287 1032.75 426.641 1032.75ZM463.418 1042.31C463.418 1049.66 457.457 1055.62 450.103 1055.62C442.749 1055.62 436.788 1049.66 436.788 1042.31C436.788 1034.96 442.749 1028.99 450.103 1028.99C457.457 1028.99 463.418 1034.96 463.418 1042.31ZM473.213 1032.75C480.567 1032.75 486.528 1026.79 486.528 1019.43C486.528 1012.08 480.567 1006.12 473.213 1006.12C465.86 1006.12 459.898 1012.08 459.898 1019.43C459.898 1026.79 465.86 1032.75 473.213 1032.75Z" fill="black" fill-opacity="0.2"/>
<path fill-rule="evenodd" clip-rule="evenodd" d="M777.074 352.601C792.651 357.094 810.462 362.233 828 362.247C845.538 362.233 863.349 357.094 878.926 352.601C891.044 349.105 901.809 346 910.041 346C968.05 346 1002.6 553.288 956.965 553.288C942.124 553.288 934.778 544.49 925.684 533.599C910.918 515.916 891.544 492.715 828 492.697C764.456 492.715 745.082 515.916 730.316 533.599C721.222 544.49 713.876 553.288 699.035 553.288C653.402 553.288 687.95 346 745.959 346C754.191 346 764.956 349.105 777.074 352.601ZM735.05 403.482C735.05 398.169 739.357 393.863 744.669 393.863C749.982 393.863 754.289 398.169 754.289 403.482V410.755H761.562C766.875 410.755 771.182 415.062 771.182 420.375C771.182 425.687 766.875 429.994 761.562 429.994H754.289V437.268C754.289 442.58 749.982 446.887 744.669 446.887C739.357 446.887 735.05 442.58 735.05 437.268V429.994H727.777C722.464 429.994 718.157 425.687 718.157 420.375C718.157 415.062 722.464 410.755 727.777 410.755H735.05V403.482ZM914.418 397.323C914.418 404.677 908.457 410.638 901.103 410.638C893.749 410.638 887.788 404.677 887.788 397.323C887.788 389.97 893.749 384.009 901.103 384.009C908.457 384.009 914.418 389.97 914.418 397.323ZM877.641 433.748C884.994 433.748 890.956 427.787 890.956 420.434C890.956 413.08 884.994 407.119 877.641 407.119C870.287 407.119 864.326 413.08 864.326 420.434C864.326 427.787 870.287 433.748 877.641 433.748ZM914.418 443.309C914.418 450.662 908.457 456.624 901.103 456.624C893.749 456.624 887.788 450.662 887.788 443.309C887.788 435.955 893.749 429.994 901.103 429.994C908.457 429.994 914.418 435.955 914.418 443.309ZM924.213 433.748C931.567 433.748 937.528 427.787 937.528 420.434C937.528 413.08 931.567 407.119 924.213 407.119C916.86 407.119 910.898 413.08 910.898 420.434C910.898 427.787 916.86 433.748 924.213 433.748Z" fill="black" fill-opacity="0.2"/>
<path fill-rule="evenodd" clip-rule="evenodd" d="M778.074 951.601C793.651 956.094 811.462 961.233 829 961.247C846.538 961.233 864.349 956.094 879.926 951.601C892.044 948.105 902.809 945 911.041 945C969.05 945 1003.6 1152.29 957.965 1152.29C943.124 1152.29 935.778 1143.49 926.684 1132.6C911.918 1114.92 892.544 1091.72 829 1091.7C765.456 1091.72 746.082 1114.92 731.316 1132.6C722.222 1143.49 714.876 1152.29 700.035 1152.29C654.402 1152.29 688.95 945 746.959 945C755.191 945 765.956 948.105 778.074 951.601ZM736.05 1002.48C736.05 997.169 740.357 992.863 745.669 992.863C750.982 992.863 755.289 997.169 755.289 1002.48V1009.76H762.562C767.875 1009.76 772.182 1014.06 772.182 1019.37C772.182 1024.69 767.875 1028.99 762.562 1028.99H755.289V1036.27C755.289 1041.58 750.982 1045.89 745.669 1045.89C740.357 1045.89 736.05 1041.58 736.05 1036.27V1028.99H728.777C723.464 1028.99 719.157 1024.69 719.157 1019.37C719.157 1014.06 723.464 1009.76 728.777 1009.76H736.05V1002.48ZM915.418 996.323C915.418 1003.68 909.457 1009.64 902.103 1009.64C894.749 1009.64 888.788 1003.68 888.788 996.323C888.788 988.97 894.749 983.009 902.103 983.009C909.457 983.009 915.418 988.97 915.418 996.323ZM878.641 1032.75C885.994 1032.75 891.956 1026.79 891.956 1019.43C891.956 1012.08 885.994 1006.12 878.641 1006.12C871.287 1006.12 865.326 1012.08 865.326 1019.43C865.326 1026.79 871.287 1032.75 878.641 1032.75ZM915.418 1042.31C915.418 1049.66 909.457 1055.62 902.103 1055.62C894.749 1055.62 888.788 1049.66 888.788 1042.31C888.788 1034.96 894.749 1028.99 902.103 1028.99C909.457 1028.99 915.418 1034.96 915.418 1042.31ZM925.213 1032.75C932.567 1032.75 938.528 1026.79 938.528 1019.43C938.528 1012.08 932.567 1006.12 925.213 1006.12C917.86 1006.12 911.898 1012.08 911.898 1019.43C911.898 1026.79 917.86 1032.75 925.213 1032.75Z" fill="black" fill-opacity="0.2"/>
<path fill-rule="evenodd" clip-rule="evenodd" d="M1228.07 352.601C1243.65 357.094 1261.46 362.233 1279 362.247C1296.54 362.233 1314.35 357.094 1329.93 352.601C1342.04 349.105 1352.81 346 1361.04 346C1419.05 346 1453.6 553.288 1407.97 553.288C1393.12 553.288 1385.78 544.49 1376.68 533.599C1361.92 515.916 1342.54 492.715 1279 492.697C1215.46 492.715 1196.08 515.916 1181.32 533.599C1172.22 544.49 1164.88 553.288 1150.03 553.288C1104.4 553.288 1138.95 346 1196.96 346C1205.19 346 1215.96 349.105 1228.07 352.601ZM1186.05 403.482C1186.05 398.169 1190.36 393.863 1195.67 393.863C1200.98 393.863 1205.29 398.169 1205.29 403.482V410.755H1212.56C1217.87 410.755 1222.18 415.062 1222.18 420.375C1222.18 425.687 1217.87 429.994 1212.56 429.994H1205.29V437.268C1205.29 442.58 1200.98 446.887 1195.67 446.887C1190.36 446.887 1186.05 442.58 1186.05 437.268V429.994H1178.78C1173.46 429.994 1169.16 425.687 1169.16 420.375C1169.16 415.062 1173.46 410.755 1178.78 410.755H1186.05V403.482ZM1365.42 397.323C1365.42 404.677 1359.46 410.638 1352.1 410.638C1344.75 410.638 1338.79 404.677 1338.79 397.323C1338.79 389.97 1344.75 384.009 1352.1 384.009C1359.46 384.009 1365.42 389.97 1365.42 397.323ZM1328.64 433.748C1335.99 433.748 1341.96 427.787 1341.96 420.434C1341.96 413.08 1335.99 407.119 1328.64 407.119C1321.29 407.119 1315.33 413.08 1315.33 420.434C1315.33 427.787 1321.29 433.748 1328.64 433.748ZM1365.42 443.309C1365.42 450.662 1359.46 456.624 1352.1 456.624C1344.75 456.624 1338.79 450.662 1338.79 443.309C1338.79 435.955 1344.75 429.994 1352.1 429.994C1359.46 429.994 1365.42 435.955 1365.42 443.309ZM1375.21 433.748C1382.57 433.748 1388.53 427.787 1388.53 420.434C1388.53 413.08 1382.57 407.119 1375.21 407.119C1367.86 407.119 1361.9 413.08 1361.9 420.434C1361.9 427.787 1367.86 433.748 1375.21 433.748Z" fill="black" fill-opacity="0.2"/>
<path fill-rule="evenodd" clip-rule="evenodd" d="M1229.07 951.601C1244.65 956.094 1262.46 961.233 1280 961.247C1297.54 961.233 1315.35 956.094 1330.93 951.601C1343.04 948.105 1353.81 945 1362.04 945C1420.05 945 1454.6 1152.29 1408.97 1152.29C1394.12 1152.29 1386.78 1143.49 1377.68 1132.6C1362.92 1114.92 1343.54 1091.72 1280 1091.7C1216.46 1091.72 1197.08 1114.92 1182.32 1132.6C1173.22 1143.49 1165.88 1152.29 1151.03 1152.29C1105.4 1152.29 1139.95 945 1197.96 945C1206.19 945 1216.96 948.105 1229.07 951.601ZM1187.05 1002.48C1187.05 997.169 1191.36 992.863 1196.67 992.863C1201.98 992.863 1206.29 997.169 1206.29 1002.48V1009.76H1213.56C1218.87 1009.76 1223.18 1014.06 1223.18 1019.37C1223.18 1024.69 1218.87 1028.99 1213.56 1028.99H1206.29V1036.27C1206.29 1041.58 1201.98 1045.89 1196.67 1045.89C1191.36 1045.89 1187.05 1041.58 1187.05 1036.27V1028.99H1179.78C1174.46 1028.99 1170.16 1024.69 1170.16 1019.37C1170.16 1014.06 1174.46 1009.76 1179.78 1009.76H1187.05V1002.48ZM1366.42 996.323C1366.42 1003.68 1360.46 1009.64 1353.1 1009.64C1345.75 1009.64 1339.79 1003.68 1339.79 996.323C1339.79 988.97 1345.75 983.009 1353.1 983.009C1360.46 983.009 1366.42 988.97 1366.42 996.323ZM1329.64 1032.75C1336.99 1032.75 1342.96 1026.79 1342.96 1019.43C1342.96 1012.08 1336.99 1006.12 1329.64 1006.12C1322.29 1006.12 1316.33 1012.08 1316.33 1019.43C1316.33 1026.79 1322.29 1032.75 1329.64 1032.75ZM1366.42 1042.31C1366.42 1049.66 1360.46 1055.62 1353.1 1055.62C1345.75 1055.62 1339.79 1049.66 1339.79 1042.31C1339.79 1034.96 1345.75 1028.99 1353.1 1028.99C1360.46 1028.99 1366.42 1034.96 1366.42 1042.31ZM1376.21 1032.75C1383.57 1032.75 1389.53 1026.79 1389.53 1019.43C1389.53 1012.08 1383.57 1006.12 1376.21 1006.12C1368.86 1006.12 1362.9 1012.08 1362.9 1019.43C1362.9 1026.79 1368.86 1032.75 1376.21 1032.75Z" fill="black" fill-opacity="0.2"/>
<path fill-rule="evenodd" clip-rule="evenodd" d="M1003.07 52.601C1018.65 57.0945 1036.46 62.2326 1054 62.2475C1071.54 62.2326 1089.35 57.0945 1104.93 52.601C1117.04 49.1055 1127.81 46 1136.04 46C1194.05 46 1228.6 253.288 1182.97 253.288C1168.12 253.288 1160.78 244.49 1151.68 233.599C1136.92 215.916 1117.54 192.715 1054 192.697C990.456 192.715 971.082 215.916 956.316 233.599C947.222 244.49 939.876 253.288 925.035 253.288C879.402 253.288 913.95 46 971.959 46C980.191 46 990.956 49.1055 1003.07 52.601ZM961.05 103.482C961.05 98.1695 965.357 93.8627 970.669 93.8627C975.982 93.8627 980.289 98.1695 980.289 103.482V110.755H987.562C992.875 110.755 997.182 115.062 997.182 120.375C997.182 125.687 992.875 129.994 987.562 129.994H980.289V137.268C980.289 142.58 975.982 146.887 970.669 146.887C965.357 146.887 961.05 142.58 961.05 137.268V129.994H953.777C948.464 129.994 944.157 125.687 944.157 120.375C944.157 115.062 948.464 110.755 953.777 110.755H961.05V103.482ZM1140.42 97.3233C1140.42 104.677 1134.46 110.638 1127.1 110.638C1119.75 110.638 1113.79 104.677 1113.79 97.3233C1113.79 89.9698 1119.75 84.0085 1127.1 84.0085C1134.46 84.0085 1140.42 89.9698 1140.42 97.3233ZM1103.64 133.748C1110.99 133.748 1116.96 127.787 1116.96 120.434C1116.96 113.08 1110.99 107.119 1103.64 107.119C1096.29 107.119 1090.33 113.08 1090.33 120.434C1090.33 127.787 1096.29 133.748 1103.64 133.748ZM1140.42 143.309C1140.42 150.662 1134.46 156.624 1127.1 156.624C1119.75 156.624 1113.79 150.662 1113.79 143.309C1113.79 135.955 1119.75 129.994 1127.1 129.994C1134.46 129.994 1140.42 135.955 1140.42 143.309ZM1150.21 133.748C1157.57 133.748 1163.53 127.787 1163.53 120.434C1163.53 113.08 1157.57 107.119 1150.21 107.119C1142.86 107.119 1136.9 113.08 1136.9 120.434C1136.9 127.787 1142.86 133.748 1150.21 133.748Z" fill="black" fill-opacity="0.2"/>
<path fill-rule="evenodd" clip-rule="evenodd" d="M1002.07 651.601C1017.65 656.094 1035.46 661.233 1053 661.247C1070.54 661.233 1088.35 656.094 1103.93 651.601C1116.04 648.105 1126.81 645 1135.04 645C1193.05 645 1227.6 852.288 1181.97 852.288C1167.12 852.288 1159.78 843.49 1150.68 832.599C1135.92 814.916 1116.54 791.715 1053 791.697C989.456 791.715 970.082 814.916 955.316 832.599C946.222 843.49 938.876 852.288 924.035 852.288C878.402 852.288 912.95 645 970.959 645C979.191 645 989.956 648.105 1002.07 651.601ZM960.05 702.482C960.05 697.169 964.357 692.863 969.669 692.863C974.982 692.863 979.289 697.169 979.289 702.482V709.755H986.562C991.875 709.755 996.182 714.062 996.182 719.375C996.182 724.687 991.875 728.994 986.562 728.994H979.289V736.268C979.289 741.58 974.982 745.887 969.669 745.887C964.357 745.887 960.05 741.58 960.05 736.268V728.994H952.777C947.464 728.994 943.157 724.687 943.157 719.375C943.157 714.062 947.464 709.755 952.777 709.755H960.05V702.482ZM1139.42 696.323C1139.42 703.677 1133.46 709.638 1126.1 709.638C1118.75 709.638 1112.79 703.677 1112.79 696.323C1112.79 688.97 1118.75 683.009 1126.1 683.009C1133.46 683.009 1139.42 688.97 1139.42 696.323ZM1102.64 732.748C1109.99 732.748 1115.96 726.787 1115.96 719.434C1115.96 712.08 1109.99 706.119 1102.64 706.119C1095.29 706.119 1089.33 712.08 1089.33 719.434C1089.33 726.787 1095.29 732.748 1102.64 732.748ZM1139.42 742.309C1139.42 749.662 1133.46 755.624 1126.1 755.624C1118.75 755.624 1112.79 749.662 1112.79 742.309C1112.79 734.955 1118.75 728.994 1126.1 728.994C1133.46 728.994 1139.42 734.955 1139.42 742.309ZM1149.21 732.748C1156.57 732.748 1162.53 726.787 1162.53 719.434C1162.53 712.08 1156.57 706.119 1149.21 706.119C1141.86 706.119 1135.9 712.08 1135.9 719.434C1135.9 726.787 1141.86 732.748 1149.21 732.748Z" fill="black" fill-opacity="0.2"/>
</svg>
