<svg width="300" height="208" viewBox="0 0 300 208" fill="none" xmlns="http://www.w3.org/2000/svg">
<path fill-rule="evenodd" clip-rule="evenodd" d="M150 191.04C167.538 191.055 185.349 196.193 200.926 200.687C213.044 204.182 223.809 207.288 232.041 207.288C290.05 207.288 324.598 -1.31084e-05 278.965 -1.70977e-05C264.124 -1.83951e-05 256.778 8.7977 247.684 19.6884C232.918 37.3714 213.544 60.5723 150 60.5908C86.4555 60.5723 67.0821 37.3714 52.3162 19.6884C43.2222 8.79768 35.8758 -3.83493e-05 21.0346 -3.96467e-05C-24.5981 -4.36361e-05 9.95026 207.288 67.9588 207.288C76.1908 207.288 86.9561 204.182 99.0737 200.687C114.651 196.193 132.462 191.055 150 191.04ZM233.331 159.425C238.643 159.425 242.95 155.118 242.95 149.805L242.95 142.532L250.223 142.532C255.536 142.532 259.843 138.225 259.843 132.913C259.843 127.6 255.536 123.293 250.223 123.293L242.95 123.293L242.95 116.02C242.95 110.707 238.643 106.401 233.331 106.401C228.018 106.401 223.711 110.707 223.711 116.02L223.711 123.293L216.438 123.293C211.125 123.293 206.818 127.6 206.818 132.913C206.818 138.225 211.125 142.532 216.438 142.532L223.711 142.532L223.711 149.805C223.711 155.118 228.018 159.425 233.331 159.425ZM76.8972 142.65C69.5436 142.65 63.5824 148.611 63.5824 155.964C63.5824 163.318 69.5436 169.279 76.8972 169.279C84.2507 169.279 90.2119 163.318 90.2119 155.964C90.2119 148.611 84.2507 142.65 76.8972 142.65ZM87.0443 132.854C87.0443 125.501 93.0056 119.539 100.359 119.539C107.713 119.539 113.674 125.501 113.674 132.854C113.674 140.208 107.713 146.169 100.359 146.169C93.0056 146.169 87.0443 140.208 87.0443 132.854ZM76.8972 96.6639C69.5436 96.6639 63.5824 102.625 63.5824 109.979C63.5824 117.332 69.5436 123.293 76.8972 123.293C84.2507 123.293 90.2119 117.332 90.2119 109.979C90.2119 102.625 84.2507 96.6639 76.8972 96.6639ZM40.4721 132.854C40.4721 125.501 46.4333 119.539 53.7868 119.539C61.1404 119.539 67.1016 125.501 67.1016 132.854C67.1016 140.208 61.1404 146.169 53.7868 146.169C46.4333 146.169 40.4721 140.208 40.4721 132.854ZM138.384 174.41C137.715 172.795 137.371 171.063 137.371 169.315L150.685 169.315L164 169.315C164 171.063 163.656 172.795 162.986 174.41C162.317 176.026 161.337 177.493 160.1 178.73C158.864 179.966 157.396 180.947 155.781 181.616C154.165 182.285 152.434 182.63 150.685 182.63C148.937 182.63 147.205 182.285 145.59 181.616C143.975 180.947 142.507 179.966 141.27 178.73C140.034 177.493 139.053 176.026 138.384 174.41Z" fill="#3C9CD0"/>
</svg>
