<svg width="300" height="208" viewBox="0 0 300 208" fill="none" xmlns="http://www.w3.org/2000/svg">
<path d="M200.926 200.687C185.349 196.193 167.538 191.055 150 191.04C132.462 191.055 114.651 196.193 99.0737 200.687C86.9561 204.182 76.1908 207.288 67.9588 207.288C9.95026 207.288 -24.5981 -4.76147e-05 21.0346 -4.36253e-05C35.8758 -4.23279e-05 43.2221 8.79767 52.3162 19.6884C67.0821 37.3714 86.4555 60.5723 150 60.5908C213.545 60.5723 232.918 37.3714 247.684 19.6884C256.778 8.79769 264.124 -2.23738e-05 278.965 -2.10763e-05C324.598 -1.7087e-05 290.05 207.288 232.041 207.288C223.809 207.288 213.044 204.182 200.926 200.687Z" fill="#193444"/>
<rect x="242.95" y="159.425" width="19.2389" height="53.0243" rx="9.61946" transform="rotate(-180 242.95 159.425)" fill="#325832"/>
<rect x="206.818" y="142.532" width="19.2389" height="53.0243" rx="9.61946" transform="rotate(-90 206.818 142.532)" fill="#325832"/>
<circle cx="76.8972" cy="155.964" r="13.3147" transform="rotate(-180 76.8972 155.964)" fill="#862727"/>
<circle cx="100.359" cy="132.854" r="13.3147" transform="rotate(-180 100.359 132.854)" fill="#862727"/>
<circle cx="76.8972" cy="109.979" r="13.3147" transform="rotate(-180 76.8972 109.979)" fill="#862727"/>
<circle cx="53.7868" cy="132.854" r="13.3147" transform="rotate(-180 53.7868 132.854)" fill="#862727"/>
<path d="M137.371 169.315C137.371 171.063 137.715 172.795 138.384 174.41C139.053 176.026 140.034 177.493 141.27 178.73C142.507 179.966 143.975 180.947 145.59 181.616C147.205 182.285 148.937 182.63 150.685 182.63C152.434 182.63 154.165 182.285 155.781 181.616C157.396 180.947 158.864 179.966 160.1 178.73C161.337 177.493 162.317 176.026 162.986 174.41C163.656 172.795 164 171.063 164 169.315L150.685 169.315L137.371 169.315Z" fill="#D9D9D9" fill-opacity="0.2"/>
</svg>
