<svg width="100" height="100" viewBox="0 0 100 100" fill="none" xmlns="http://www.w3.org/2000/svg">
<rect width="100" height="100" fill="#635BFF"/>
<path d="M71.2086 19.4269L65.3152 17.6474C57.5557 15.3061 45.6818 15.4843 39.8814 18.0297C32.468 21.2815 27 28.918 27 36.0217C27 47.3353 33.7014 52.4908 50.6287 58.8576C55.6029 60.7291 56.6989 65.2658 53.6776 67.3016C51.031 69.0841 39.7597 67.9634 33.86 64.9987C32.3605 64.2459 30.9942 63.2556 30.098 62.6058C29.5394 62.2008 29.1635 61.9281 29.0518 61.9281C28.7623 61.9281 28.5244 66.3374 28.5244 71.7248V81.5229L35.2973 83.2394C56.5694 88.6344 72.3794 81.331 73.8503 65.4331C74.8366 54.769 71.2086 49.6627 55.202 43.5047C39.1955 37.3467 45.5295 29.2111 62.062 34.293C64.5217 35.0489 66.6334 35.9657 68.0856 36.5963C69.1088 37.0405 69.8051 37.3428 70.0653 37.3467C70.695 37.3559 71.2086 33.3273 71.2086 28.3944V19.4269Z" fill="white"/>
</svg>
